<svg xmlns="http://www.w3.org/2000/svg" width="4984.83" height="1398.036" viewBox="0 0 4984.83 1398.036">
  <g id="Group_111" data-name="Group 111" transform="translate(-507.585 -450.234)">
    <rect id="Rectangle_106" data-name="Rectangle 106" width="4984.83" height="1398.036" rx="192.213" transform="translate(507.585 450.234)"/>
    <g id="Group_110" data-name="Group 110">
      <g id="Group_108" data-name="Group 108">
        <g id="Group_106" data-name="Group 106">
          <path id="Path_231" data-name="Path 231" d="M2169.171,833.861l-28.764,87.12h-36.978l94.1-276.951h43.142l94.505,276.951h-38.215l-29.584-87.12Zm90.808-27.936-27.124-79.693c-6.156-18.1-10.271-34.527-14.378-50.552h-.82c-4.107,16.427-8.632,33.289-13.968,50.117l-27.124,80.128Z" fill="#fff"/>
          <path id="Path_232" data-name="Path 232" d="M2380.087,722.117l39.035,111.744a513.391,513.391,0,0,1,16.026,50.954h1.238c4.516-16.428,10.271-32.854,16.845-50.954l38.617-111.744h37.805l-78.07,198.864h-34.51l-75.6-198.864Z" fill="#fff"/>
          <path id="Path_233" data-name="Path 233" d="M2672.336,920.981l-2.878-25.059h-1.238c-11.09,15.624-32.452,29.575-60.806,29.575-40.265,0-60.815-28.337-60.815-57.11,0-48.076,42.732-74.373,119.572-73.971v-4.082c0-16.46-4.525-46.036-45.2-46.036-18.493,0-37.8,5.755-51.774,14.788l-8.213-23.821c16.435-10.672,40.264-17.665,65.332-17.665,60.806,0,75.6,41.486,75.6,81.332v74.374c0,17.263.82,34.125,3.287,47.675Zm-5.345-101.473c-39.445-.836-84.235,6.156-84.235,44.764,0,23.42,15.616,34.527,34.109,34.527,25.887,0,42.322-16.427,48.068-33.289A37.61,37.61,0,0,0,2666.991,854Z" fill="#fff"/>
          <path id="Path_234" data-name="Path 234" d="M2800.623,666.245c.419,12.312-8.623,22.181-23.009,22.181-12.739,0-21.772-9.869-21.772-22.181,0-12.747,9.452-22.616,22.6-22.616C2792,643.629,2800.623,653.5,2800.623,666.245Zm-40.264,254.736V722.117h36.158V920.981Z" fill="#fff"/>
          <path id="Path_235" data-name="Path 235" d="M2856.562,629.242h36.158V920.981h-36.158Z" fill="#fff"/>
          <path id="Path_236" data-name="Path 236" d="M3063.706,920.981l-2.877-25.059h-1.238c-11.09,15.624-32.452,29.575-60.806,29.575-40.265,0-60.815-28.337-60.815-57.11,0-48.076,42.732-74.373,119.572-73.971v-4.082c0-16.46-4.525-46.036-45.2-46.036-18.493,0-37.8,5.755-51.774,14.788l-8.213-23.821c16.435-10.672,40.264-17.665,65.331-17.665,60.807,0,75.6,41.486,75.6,81.332v74.374c0,17.263.82,34.125,3.287,47.675Zm-5.344-101.473c-39.445-.836-84.235,6.156-84.235,44.764,0,23.42,15.616,34.527,34.109,34.527,25.887,0,42.322-16.427,48.068-33.289A37.6,37.6,0,0,0,3058.362,854Z" fill="#fff"/>
          <path id="Path_237" data-name="Path 237" d="M3150.09,920.981c.82-13.55,1.64-33.691,1.64-51.356V629.242h35.748V754.168h.819c12.739-22.181,35.748-36.568,67.8-36.568,49.307,0,84.226,41.085,83.817,101.473,0,71.094-44.782,106.424-89.161,106.424-28.764,0-51.765-11.107-66.561-37.4h-1.23l-1.648,32.888Zm37.388-79.726a67.289,67.289,0,0,0,1.639,13.148c6.992,25.092,27.944,42.322,54.241,42.322,37.8,0,60.4-30.813,60.4-76.414,0-39.846-20.542-73.972-59.168-73.972-24.648,0-47.658,16.862-55.052,44.4-.828,4.115-2.057,9.033-2.057,14.787Z" fill="#fff"/>
          <path id="Path_238" data-name="Path 238" d="M3385.656,629.242h36.157V920.981h-36.157Z" fill="#fff"/>
          <path id="Path_239" data-name="Path 239" d="M3502.811,828.106c.828,48.913,32.051,69.054,68.209,69.054,25.887,0,41.5-4.517,55.06-10.271l6.165,25.861c-12.739,5.755-34.519,12.346-66.16,12.346-61.217,0-97.784-40.281-97.784-100.268S3503.639,717.6,3561.568,717.6c64.922,0,82.177,57.11,82.177,93.678a136.1,136.1,0,0,1-1.229,16.828Zm106.014-25.861c.41-23.018-9.451-58.75-50.134-58.75-36.568,0-52.593,33.691-55.47,58.75Z" fill="#fff"/>
          <path id="Path_240" data-name="Path 240" d="M3955.758,819.909c0,73.537-50.954,105.588-99.022,105.588-53.831,0-95.325-39.445-95.325-102.309,0-66.578,43.551-105.588,98.612-105.588C3917.133,717.6,3955.758,759.086,3955.758,819.909Zm-157.78,2.041c0,43.56,25.068,76.448,60.4,76.448,34.519,0,60.405-32.486,60.405-77.251,0-33.69-16.845-76.447-59.585-76.447C3816.471,744.7,3797.978,784.145,3797.978,821.95Z" fill="#fff"/>
          <path id="Path_241" data-name="Path 241" d="M4001.484,775.948c0-20.542-.41-37.4-1.639-53.831h32.043l2.057,32.854h.82c9.861-18.9,32.871-37.371,65.741-37.371,27.535,0,70.267,16.427,70.267,84.645V920.981h-36.158V806.36c0-32.051-11.919-58.783-46.019-58.783-23.838,0-42.322,16.862-48.487,37-1.647,4.516-2.467,10.672-2.467,16.828V920.981h-36.158Z" fill="#fff"/>
          <path id="Path_242" data-name="Path 242" d="M4360.361,665.007v57.11h51.773v27.534h-51.773V856.879c0,24.657,6.984,38.642,27.124,38.642a80.044,80.044,0,0,0,20.952-2.476l1.648,27.1c-6.992,2.877-18.083,4.952-32.051,4.952-16.845,0-30.412-5.353-39.035-15.223-10.271-10.672-13.968-28.337-13.968-51.757V749.651h-30.822V722.117h30.822V674.442Z" fill="#fff"/>
          <path id="Path_243" data-name="Path 243" d="M4452.876,629.242h36.157v124.09h.82a67.053,67.053,0,0,1,25.887-25.461,74.511,74.511,0,0,1,36.986-10.271c26.706,0,69.438,16.427,69.438,85.046V920.981h-36.158V806.761c0-32.051-11.919-59.184-46.019-59.184-23.428,0-41.912,16.461-48.486,36.166-2.058,4.918-2.468,10.271-2.468,17.264V920.981h-36.157Z" fill="#fff"/>
          <path id="Path_244" data-name="Path 244" d="M4701.179,828.106c.828,48.913,32.051,69.054,68.209,69.054,25.887,0,41.5-4.517,55.061-10.271l6.164,25.861c-12.738,5.755-34.519,12.346-66.16,12.346-61.216,0-97.784-40.281-97.784-100.268S4702.007,717.6,4759.937,717.6c64.922,0,82.176,57.11,82.176,93.678a136.049,136.049,0,0,1-1.229,16.828Zm106.015-25.861c.409-23.018-9.452-58.75-50.135-58.75-36.567,0-52.593,33.691-55.47,58.75Z" fill="#fff"/>
        </g>
        <g id="Group_107" data-name="Group 107">
          <path id="Path_245" data-name="Path 245" d="M2189.424,1418.6l-50.749,153.71h-65.241l166.017-488.636h76.117l166.74,488.636h-67.425l-52.2-153.71Zm160.218-49.288-47.857-140.6c-10.862-31.935-18.122-60.917-25.368-89.192h-1.446c-7.246,28.983-15.229,58.733-24.644,88.424l-47.857,141.373Z" fill="#fff"/>
          <path id="Path_246" data-name="Path 246" d="M2549.969,1335.966c0-44.921-1.447-81.164-2.893-114.515h57.258l2.907,60.15h1.446c26.1-42.737,67.425-68.119,124.7-68.119,84.809,0,148.6,71.779,148.6,178.324,0,126.144-76.84,188.477-159.48,188.477-46.4,0-86.993-20.3-108.022-55.073h-1.446v190.661h-63.071Zm63.071,93.559c0,9.386,1.446,18.122,2.893,26.091,11.6,44.212,50.026,74.671,95.7,74.671,67.425,0,106.561-55.133,106.561-135.588,0-70.3-36.967-130.511-104.392-130.511-43.489,0-84.085,31.225-96.407,79.038-2.184,7.969-4.354,17.414-4.354,26.091Z" fill="#fff"/>
          <path id="Path_247" data-name="Path 247" d="M2962.679,1335.966c0-44.921-1.446-81.164-2.892-114.515h57.272l2.892,60.15h1.446c26.106-42.737,67.425-68.119,124.7-68.119,84.809,0,148.6,71.779,148.6,178.324,0,126.144-76.84,188.477-159.48,188.477-46.4,0-86.992-20.3-108.021-55.073h-1.446v190.661h-63.072Zm63.072,93.559c0,9.386,1.446,18.122,2.907,26.091,11.6,44.212,50.011,74.671,95.685,74.671,67.424,0,106.56-55.133,106.56-135.588,0-70.3-36.966-130.511-104.391-130.511-43.489,0-84.086,31.225-96.408,79.038-2.184,7.969-4.353,17.414-4.353,26.091Z" fill="#fff"/>
          <path id="Path_248" data-name="Path 248" d="M3522.635,1495.46c28.275,17.413,69.595,31.934,113.1,31.934,64.518,0,102.208-34.118,102.208-83.407,0-45.687-26.091-71.778-92.07-97.1-79.732-28.274-129.035-69.594-129.035-138.48,0-76.146,63.071-132.695,158.033-132.695,50.026,0,86.27,11.628,108.021,23.965l-17.4,51.473a194.147,194.147,0,0,0-92.792-23.2c-66.7,0-92.07,39.845-92.07,73.2,0,45.688,29.721,68.119,97.146,94.268,82.639,31.876,124.682,71.72,124.682,143.5,0,75.438-55.811,140.664-171.078,140.664-47.119,0-98.592-13.812-124.7-31.167Z" fill="#fff"/>
          <path id="Path_249" data-name="Path 249" d="M3961.421,1120.69v100.761h91.346v48.58h-91.346v189.186c0,43.5,12.337,68.177,47.857,68.177,16.661,0,29-2.184,36.967-4.368l2.892,47.813c-12.322,5.076-31.89,8.736-56.534,8.736-29.721,0-53.642-9.444-68.871-26.858-18.122-18.83-24.645-50-24.645-91.316v-191.37h-54.379v-48.58h54.379v-84.115Z" fill="#fff"/>
          <path id="Path_250" data-name="Path 250" d="M4437.838,1393.991c0,129.744-89.9,186.292-174.709,186.292-94.976,0-168.186-69.594-168.186-180.508,0-117.407,76.84-186.293,173.986-186.293C4369.69,1213.482,4437.838,1286.677,4437.838,1393.991Zm-278.377,3.6c0,76.855,44.212,134.88,106.561,134.88,60.9,0,106.575-57.317,106.575-136.3,0-59.442-29.736-134.88-105.114-134.88C4192.074,1261.3,4159.461,1330.889,4159.461,1397.591Z" fill="#fff"/>
          <path id="Path_251" data-name="Path 251" d="M4518.515,1330.889c0-41.319-.723-76.8-2.893-109.438h55.811l2.185,68.886h2.892c15.952-47.164,54.38-76.855,97.146-76.855a67.945,67.945,0,0,1,18.121,2.184v60.15a94.3,94.3,0,0,0-21.752-2.184c-44.95,0-76.84,34.059-85.532,81.931a177.939,177.939,0,0,0-2.907,29.691v187.061h-63.071Z" fill="#fff"/>
          <path id="Path_252" data-name="Path 252" d="M4783.965,1408.452c1.46,86.3,56.549,121.835,120.343,121.835,45.673,0,73.225-7.969,97.146-18.122l10.876,45.629c-22.475,10.153-60.9,21.781-116.728,21.781-108.007,0-172.525-71.07-172.525-176.907s62.348-189.186,164.556-189.186c114.544,0,144.988,100.761,144.988,165.279a240,240,0,0,1-2.17,29.691Zm187.045-45.628c.723-40.612-16.675-103.713-88.454-103.713-64.517,0-92.792,59.5-97.868,103.713Z" fill="#fff"/>
        </g>
      </g>
      <g id="Group_109" data-name="Group 109">
        <path id="Path_253" data-name="Path 253" d="M1729.566,1332.224a20.922,20.922,0,0,1,15.972,27.608c-44.776,126.4-123.362,224.489-212.763,224.489-26.56,0-52.2-7.562-76.3-21.248a161.483,161.483,0,0,0-160.58,0c-24.106,13.686-49.643,21.248-76.2,21.248-139.332,0-252.31-238.11-252.31-450.274,0-212.061,112.978-317.99,252.31-317.99a207.278,207.278,0,0,1,98.368,24.721,122.465,122.465,0,0,0,116.245.1,206.637,206.637,0,0,1,98.473-24.821c83.116,0,156.941,37.733,202.817,113.271,7.539,12.412.411,28.362-13.779,31.453a189.376,189.376,0,0,0,7.753,371.443Z" fill="#fff"/>
        <path id="Path_254" data-name="Path 254" d="M1505,740.972c-37.866,51.093-91.985,80.1-140.968,80.668-13.7-47.03-1.752-107.285,36.114-158.378s92.038-80.056,141.021-80.629C1554.869,629.664,1542.866,689.879,1505,740.972Z" fill="#fff"/>
      </g>
    </g>
  </g>
</svg>
