<svg xmlns="http://www.w3.org/2000/svg" width="4984.83" height="1398.036" viewBox="0 0 4984.83 1398.036">
  <g id="Group_105" data-name="Group 105" transform="translate(-507.585 -2151.73)">
    <rect id="Rectangle_105" data-name="Rectangle 105" width="4984.83" height="1398.035" rx="122.959" transform="translate(507.585 2151.73)"/>
    <g id="Group_104" data-name="Group 104">
      <g id="Group_98" data-name="Group 98">
        <path id="Path_210" data-name="Path 210" d="M1423.482,2681.777,1254.51,2850.749,818.84,2415.014c15.914-32.948,57.939-48.863,93.063-28.595Z" fill="#00ff7c"/>
        <path id="Path_211" data-name="Path 211" d="M1616.513,2908.191l-193.031,111.468-168.972-168.91,168.972-168.972,193.031,111.467C1660.777,2818.794,1660.777,2882.641,1616.513,2908.191Z" fill="#ffd001"/>
        <path id="Path_212" data-name="Path 212" d="M1254.51,2850.749,818.84,3286.421a65.564,65.564,0,0,1-6.528-28.846V2443.924a65.843,65.843,0,0,1,6.528-28.91Z" fill="#00d3ff"/>
        <path id="Path_213" data-name="Path 213" d="M1423.482,3019.659,911.9,3315.08c-35.124,20.265-77.212,4.353-93.063-28.659l435.67-435.672Z" fill="#ff2132"/>
      </g>
      <g id="Group_103" data-name="Group 103">
        <g id="Group_101" data-name="Group 101">
          <g id="Group_99" data-name="Group 99">
            <path id="Path_214" data-name="Path 214" d="M2195.937,2577.934c-14.143,4.836-42.067,12.839-75.062,12.839-36.989,0-67.452-9.021-91.383-30.91-21.03-19.457-34.088-50.707-34.088-87.189.369-69.8,50.408-120.871,132.358-120.871,28.286,0,50.408,5.91,60.919,10.774l-7.618,24.661c-13.05-5.543-29.37-10.068-54.025-10.068-59.472,0-98.269,35.436-98.269,94.118,0,59.389,37.35,94.485,94.276,94.485,20.676,0,34.811-2.8,42.067-6.25V2489.7h-49.677v-24.322h80.5Z" fill="#fff"/>
            <path id="Path_215" data-name="Path 215" d="M2370.841,2478.584h-95.007v84.39h105.888v25.367H2244.293V2354.235h131.989V2379.6H2275.834v73.982h95.007Z" fill="#fff"/>
            <path id="Path_216" data-name="Path 216" d="M2475.009,2379.942H2400.67v-25.707h180.942v25.707h-74.7v208.4h-31.9Z" fill="#fff"/>
            <path id="Path_217" data-name="Path 217" d="M2717.365,2354.235v234.106h-31.541V2354.235Z" fill="#fff"/>
            <path id="Path_218" data-name="Path 218" d="M2818.942,2379.942H2744.61v-25.707h180.943v25.707H2850.86v208.4h-31.918Z" fill="#fff"/>
            <path id="Path_219" data-name="Path 219" d="M3238.624,2468.856c0,80.6-51.124,123.3-113.5,123.3-64.544,0-109.866-47.935-109.866-118.778,0-74.322,48.223-122.964,113.5-122.964C3195.479,2350.417,3238.624,2399.4,3238.624,2468.856Zm-189.645,3.818c0,50.028,28.285,94.824,77.963,94.824,50.039,0,78.325-44.117,78.325-97.256,0-46.522-25.385-95.165-77.963-95.165C3075.087,2375.077,3048.979,2421.288,3048.979,2472.674Z" fill="#fff"/>
            <path id="Path_220" data-name="Path 220" d="M3279.739,2588.341V2354.235h34.442l78.324,118.439c18.137,27.46,32.28,52.121,43.884,76.074l.723-.339c-2.9-31.278-3.632-59.757-3.632-96.21v-97.964h29.74v234.106h-31.91l-77.6-118.778c-17.043-26.047-33.356-52.8-45.691-78.139l-1.085.339c1.816,29.525,2.539,57.636,2.539,96.55v100.028Z" fill="#fff"/>
          </g>
          <g id="Group_100" data-name="Group 100">
            <path id="Path_221" data-name="Path 221" d="M2360.212,3185.534c-25.729,9.185-76.528,24.386-136.553,24.386-67.289,0-122.708-17.134-166.243-58.709-38.257-36.954-62.012-96.308-62.012-165.6.672-132.564,91.7-229.571,240.784-229.571,51.457,0,91.7,11.226,110.824,20.465l-13.858,46.838c-23.741-10.528-53.431-19.122-98.282-19.122-108.192,0-178.772,67.3-178.772,178.758,0,112.8,67.948,179.457,171.507,179.457,37.613,0,63.328-5.318,76.528-11.871V3017.949h-90.372v-46.194h146.449Z" fill="#fff"/>
            <path id="Path_222" data-name="Path 222" d="M2738.421,3043.033c0,118.062-81.8,169.519-158.978,169.519-86.425,0-153.043-63.328-153.043-164.255,0-106.89,69.922-169.52,158.32-169.52C2676.409,2878.777,2738.421,2945.382,2738.421,3043.033Zm-253.312,3.276c0,69.935,40.231,122.735,96.966,122.735,55.419,0,96.98-52.155,96.98-124.024,0-54.089-27.059-122.735-95.65-122.735C2514.786,2922.285,2485.109,2985.613,2485.109,3046.309Z" fill="#fff"/>
            <path id="Path_223" data-name="Path 223" d="M3100.772,3043.033c0,118.062-81.806,169.519-158.978,169.519-86.425,0-153.043-63.328-153.043-164.255,0-106.89,69.921-169.52,158.32-169.52C3038.76,2878.777,3100.772,2945.382,3100.772,3043.033Zm-253.313,3.276c0,69.935,40.232,122.735,96.966,122.735,55.419,0,96.98-52.155,96.98-124.024,0-54.089-27.058-122.735-95.65-122.735C2877.136,2922.285,2847.459,2985.613,2847.459,3046.309Z" fill="#fff"/>
            <path id="Path_224" data-name="Path 224" d="M3449.264,2886.029c-1.316,23.1-2.632,48.825-2.632,87.714v185.364c0,73.265-14.516,118.116-45.522,145.778-31.006,29.059-75.857,38.3-116.1,38.3-38.257,0-80.476-9.239-106.2-26.373l14.516-44.206c21.109,13.159,54.089,25.03,93.676,25.03,59.366,0,102.9-30.993,102.9-111.455v-35.612h-1.316c-17.819,29.65-52.115,53.391-101.585,53.391-79.174,0-135.9-67.249-135.9-155.661,0-108.179,70.579-169.52,143.8-169.52,55.419,0,85.753,29,99.611,55.379h1.317l2.645-48.127Zm-60.025,126.011c0-9.937-.658-18.477-3.3-26.427-10.555-33.624-38.915-61.341-81.134-61.341-55.419,0-94.992,46.838-94.992,120.748,0,62.63,31.664,114.786,94.334,114.786,35.625,0,67.947-22.453,80.476-59.407a100.79,100.79,0,0,0,4.619-30.993Z" fill="#fff"/>
            <path id="Path_225" data-name="Path 225" d="M3543.141,2736.92h58.051V3205.3h-58.051Z" fill="#fff"/>
            <path id="Path_226" data-name="Path 226" d="M3731.232,3056.193c1.316,78.528,51.458,110.864,109.508,110.864,41.561,0,66.632-7.251,88.4-16.49l9.9,41.52c-20.452,9.239-55.419,19.82-106.2,19.82-98.3,0-157-64.67-157-160.978s56.721-172.152,149.739-172.152c104.231,0,131.934,91.689,131.934,150.4a218.5,218.5,0,0,1-1.974,27.018Zm170.191-41.521c.671-36.955-15.161-94.321-80.476-94.321-58.709,0-84.437,54.09-89.057,94.321Z" fill="#fff"/>
          </g>
        </g>
        <g id="Group_102" data-name="Group 102">
          <path id="Path_227" data-name="Path 227" d="M4115.274,2765.979c27.7-4.619,63.986-8.594,110.153-8.594,56.734,0,98.3,13.214,124.682,36.955,24.412,21.109,38.915,53.445,38.915,92.978,0,40.285-11.871,71.922-34.3,95.019-30.348,32.335-79.818,48.825-135.9,48.825-17.148,0-32.98-.7-46.18-3.975V3205.3h-57.379Zm57.379,214.37c12.542,3.277,28.374,4.62,47.5,4.62,69.264,0,111.482-33.625,111.482-94.966,0-58.708-41.547-87.123-104.875-87.123-25.071,0-44.206,1.988-54.1,4.62Z" fill="#fff"/>
          <path id="Path_228" data-name="Path 228" d="M4461.134,2736.92h58.051V3205.3h-58.051Z" fill="#fff"/>
          <path id="Path_229" data-name="Path 229" d="M4793.7,3205.3l-4.619-40.232h-1.987c-17.806,25.085-52.1,47.483-97.624,47.483-64.644,0-97.638-45.5-97.638-91.689,0-77.186,68.606-119.4,191.972-118.76v-6.553c0-26.427-7.265-73.91-72.567-73.91-29.69,0-60.683,9.239-83.121,23.742l-13.187-38.244c26.387-17.135,64.644-28.361,104.889-28.361,97.624,0,121.379,66.6,121.379,130.577v119.405c0,27.716,1.316,54.788,5.277,76.542Zm-8.58-162.913c-63.328-1.343-135.237,9.883-135.237,71.869,0,37.6,25.071,55.432,54.761,55.432,41.561,0,67.947-26.373,77.172-53.445a60.357,60.357,0,0,0,3.3-18.477Z" fill="#fff"/>
          <path id="Path_230" data-name="Path 230" d="M4950.866,2886.029l69.921,188.641c7.265,21.109,15.174,46.193,20.452,65.315h1.316c5.948-19.122,12.542-43.507,20.451-66.6l63.328-187.352h61.354l-87.069,227.583c-41.561,109.522-69.935,165.545-109.508,199.867-28.375,25.085-56.735,34.968-71.251,37.6l-14.516-48.826a153.693,153.693,0,0,0,50.8-28.36c15.832-12.515,35.626-34.968,48.812-64.617,2.646-5.963,4.62-10.582,4.62-13.859,0-3.33-1.316-7.949-3.948-15.2l-118.089-294.188Z" fill="#fff"/>
        </g>
      </g>
    </g>
  </g>
</svg>
