<svg xmlns="http://www.w3.org/2000/svg" width="155.857" height="159.763" viewBox="0 0 155.857 159.763">
  <g id="wazzna" transform="translate(-2.4 -11.1)">
    <circle id="Ellipse_1" data-name="Ellipse 1" cx="64.568" cy="64.568" r="64.568" transform="translate(19.585 34.226)" fill="#c8c6af" stroke="#1c4233" stroke-width="15"/>
    <path id="Path_1" data-name="Path 1" d="M891.6,295.3s12.809,6.042,19.953,10.1a21.632,21.632,0,0,1,4.506,3.014c2.13,2.579-18.692,6.231-18.692,6.231l-4.362-3.014Z" transform="translate(-760.353 -243.019)" fill="#c8c6af"/>
    <g id="Generative_Object" transform="translate(63.392 11.1)">
      <g id="Group_5" data-name="Group 5" transform="translate(5.359 4.695)">
        <g id="Group_1" data-name="Group 1">
          <path id="Path_2" data-name="Path 2" d="M621.164,93.152h-.159a6.479,6.479,0,0,1-3.2-.855,6.015,6.015,0,0,0-1.2-.493,1.7,1.7,0,0,0,.275-1.3c1.435.377,2.42,1.377,4.072,1.333a1.438,1.438,0,0,0,.2,1.319Z" transform="translate(-593.952 -83.69)" fill="#1c4233"/>
          <path id="Path_3" data-name="Path 3" d="M755.31,51.136h-.159c-2.7.043-4.318-1.681-5.9-3.362a10.663,10.663,0,0,0-3.753-2.956,1.829,1.829,0,0,0,.246-1.319c4.2,1.464,5.492,6.376,9.375,6.318A1.458,1.458,0,0,0,755.31,51.136Z" transform="translate(-704.174 -43.5)" fill="#1c4233"/>
          <path id="Path_4" data-name="Path 4" d="M470.892,361.53c-.29,0-.594.044-.884.073a11.544,11.544,0,0,1-1.565.116c-3.565-.058-6.1-.667-8.143-3.941a2.393,2.393,0,0,0,1.333-.377c1.652,2.449,3.637,2.941,6.825,2.985a9.258,9.258,0,0,0,1.043-.072.705.705,0,0,0,.174-.014c.261-.029.536-.058.811-.087.116,0,.232-.014.348-.014a3.331,3.331,0,0,0,.043.377l.029.942Z" transform="translate(-460.3 -311.915)" fill="#1c4233"/>
          <path id="Path_5" data-name="Path 5" d="M557.175,105.594a3.381,3.381,0,0,1-1.565,1.246,2.387,2.387,0,0,1-.84.145h-.478c-.029-.29-.058-.594-.1-.884a.427.427,0,0,0-.029-.188c-.029-.261-.072-.522-.1-.782-.015-.145-.044-.3-.073-.449s-.043-.3-.073-.449c-.043-.3-.1-.594-.159-.884a34.079,34.079,0,0,0-.811-3.391c-.072-.261-.159-.536-.232-.8s-.159-.507-.246-.753a.244.244,0,0,0-.029-.072c-.029-.1-.073-.188-.1-.29-.145-.42-.3-.826-.464-1.232-.087-.217-.174-.435-.261-.638-.029-.058-.058-.13-.087-.188-.072-.159-.13-.319-.2-.478a3.742,3.742,0,0,0-.159-.348c-.072-.145-.13-.29-.2-.42a1.328,1.328,0,0,0-.1-.2c-.087-.188-.188-.377-.275-.551a.437.437,0,0,0-.058-.116c-.116-.217-.232-.435-.348-.638s-.217-.391-.333-.58c-.087-.159-.188-.319-.275-.478-.058-.087-.116-.188-.174-.275a2.38,2.38,0,0,0-.2-.319c-.072-.1-.13-.217-.2-.319s-.13-.217-.2-.319-.145-.2-.217-.319l-.217-.3-.217-.3c-.145-.2-.29-.406-.449-.594-.087-.1-.159-.217-.246-.319a3.174,3.174,0,0,1-.2-.261c-.029-.043-.058-.072-.087-.116a5.608,5.608,0,0,0-.377-.449c-.159-.188-.319-.377-.478-.551s-.319-.362-.493-.536-.333-.348-.507-.522-.333-.348-.522-.507c-.087-.087-.174-.174-.261-.246s-.174-.174-.261-.246c-.174-.159-.348-.319-.536-.478-.116-.1-.232-.2-.348-.29-.087-.087-.188-.159-.275-.232l-.435-.348a1.009,1.009,0,0,0-.145-.116c-.087-.072-.188-.145-.275-.217-.275-.217-.565-.42-.855-.623a3.183,3.183,0,0,0-.362-.246,29.5,29.5,0,0,0-2.739-1.681c-.145-.072-.29-.159-.435-.232-.623-.319-1.246-.623-1.884-.913-.13-.058-.275-.116-.406-.174a.072.072,0,0,1-.044-.014c-.261-.1-.507-.217-.768-.319-.217-.087-.42-.174-.638-.246a1.133,1.133,0,0,0-.2-.072c-.232-.087-.478-.174-.71-.246-.522-.174-1.029-.333-1.55-.478-.174-.043-.333-.1-.507-.145-.449-.116-.9-.232-1.348-.333-.1-.014-.2-.043-.3-.058a.158.158,0,0,1-.073-.014c-.116-.029-.246-.043-.362-.072l-.7-.13c-.1-.014-.2-.043-.319-.058-.377-.058-.739-.116-1.116-.159-.116-.014-.246-.029-.377-.043a1.118,1.118,0,0,1-.217-.029c-.174-.014-.333-.043-.507-.058a2.175,2.175,0,0,1-.29-.029l-.478-.043c-.072,0-.159-.014-.232-.014-.159-.014-.333-.029-.493-.029-.232-.014-.464-.029-.71-.029-.478-.014-.942-.029-1.42-.029h-1.2c-.145,0-.29,0-.435.014h-.188c-.2,0-.391.014-.594.029a2.83,2.83,0,0,0-.333.029c-.145,0-.29.014-.435.029l-.493.043a1.427,1.427,0,0,0-.246.029c-.2.014-.406.043-.623.072-.188.029-.377.043-.565.072-.159.014-.319.043-.493.072l-.507.087a.184.184,0,0,0-.087.014l-.7.13a.269.269,0,0,0-.1.029c-.2.029-.391.072-.594.116a1.014,1.014,0,0,0-.2.043c-.2.043-.42.087-.623.145-.246.058-.493.116-.739.188s-.464.13-.7.188-.42.116-.638.188c-.29.087-.58.188-.884.29-.174.058-.348.116-.522.188-.333.116-.652.232-.985.362a3.543,3.543,0,0,0-.348.145l-.522.217c-.015,0-.029.014-.043.014-.232.1-.449.188-.681.29-.188.087-.391.174-.58.261-.159.072-.3.145-.464.217-.1.043-.2.1-.3.145s-.246.116-.362.188a3.9,3.9,0,0,0-.42.232c-.072.029-.159.087-.232.116-.116.058-.232.13-.348.2-.159.087-.319.174-.478.275l-.652.391c-.188.116-.377.232-.565.362s-.362.232-.536.362c-.493.333-.956.667-1.435,1.029-.116.087-.217.174-.333.261s-.246.188-.377.29a.254.254,0,0,0-.072.058c-.2.159-.391.319-.58.493-.014,0-.029.014-.043.029-.2.174-.391.333-.58.507-.029.029-.072.058-.1.087-.174.159-.348.319-.522.493-.014,0-.029.029-.043.043-.188.174-.377.362-.551.551-.275.275-.551.551-.811.84-.087.1-.174.188-.261.29-.348.391-.7.782-1.014,1.2-.159.2-.319.42-.493.623s-.319.42-.478.638-.3.435-.449.652c-.1.145-.2.3-.3.464-.087.13-.174.275-.261.406-.1.159-.2.319-.29.478-.145.232-.275.464-.406.7-.2.348-.391.71-.58,1.087-.072.116-.13.246-.188.362q-.283.543-.522,1.13c-.058.13-.116.246-.174.377-.116.261-.217.507-.319.782s-.2.522-.3.8c-.072.188-.145.391-.2.594s-.13.377-.188.565c-.1.29-.188.58-.275.884-.13.42-.232.84-.348,1.275-.029.116-.058.232-.087.362-.043.174-.087.333-.116.507-.058.246-.1.507-.159.753-.043.188-.072.377-.1.565-.029.145-.058.3-.073.449-.043.3-.1.609-.145.913a4.5,4.5,0,0,0-.058.464c-.043.3-.072.623-.1.927l-.043.391c-.029.362-.058.725-.087,1.1,0,.116-.014.232-.014.348l-.043,1.13v2.014c0,.29.014.565.029.855h0a2.621,2.621,0,0,1-.333.043c-.319.014-.623.058-.913.087h-.072c-.29.029-.565.058-.754.058-2.956-.043-3.652-.478-4.55-1.913-.623-1.014-.594-1.087.232-2.942a16.242,16.242,0,0,0,1.449-4.477,13.669,13.669,0,0,0-.377-5.159c-.377-1.71-.435-1.971.333-3.014.667-.9,1.42-1.13,3.057-1.565a10.906,10.906,0,0,0,6.535-3.912,8.805,8.805,0,0,0,1.565-6.55,5.5,5.5,0,0,1-.043-1.043,4.75,4.75,0,0,1,1.971-3.391,3.972,3.972,0,0,1,2.3-.71,2.593,2.593,0,0,1,1.145.145,5.069,5.069,0,0,1,.725.319,9.386,9.386,0,0,0,4.333,1.159h.246a8.35,8.35,0,0,0,1.884-.246c.638-.275,1.29-.522,1.942-.739h0a10.509,10.509,0,0,0,4.057-4.68,9.286,9.286,0,0,1,.782-1.319,4.419,4.419,0,0,1,3.26-1.565c1.2,0,.667.043.971.145l.13.043a8.388,8.388,0,0,1,2.724,2.246,16.2,16.2,0,0,0,3.811,3.231,34.36,34.36,0,0,1,5.477.956,12.255,12.255,0,0,0,4.318-1.7,4.215,4.215,0,0,1,1.971-.811,1.781,1.781,0,0,1,.884.159c2.724.826,2.84,1.594,3.217,4.144a17.762,17.762,0,0,0,.754,3.405,29.976,29.976,0,0,1,5.811,5.521,19.171,19.171,0,0,0,2.652.478,6.886,6.886,0,0,1,1.971.42c1.724,1.1,1.71,1.449,1.623,3.782a14.269,14.269,0,0,0,1.232,7.318,12.847,12.847,0,0,0,1.319,2.043,5.34,5.34,0,0,1,.551.811,2.913,2.913,0,0,1-.406,2.811Z" transform="translate(-479.043 -66.673)" fill="#1c4233"/>
          <path id="Path_6" data-name="Path 6" d="M894.038,111.944a7.536,7.536,0,0,1-1,.029l.058-.956v-.362h.015a4.908,4.908,0,0,0,1.3-.1,6.063,6.063,0,0,0,3.811-2.579,5.874,5.874,0,0,0,.7-5.695,7.1,7.1,0,0,0-.913-1.42,10.223,10.223,0,0,1-1.029-1.579,11.527,11.527,0,0,1-.927-5.9c.087-2.55.159-4.391-3-6.4a7.637,7.637,0,0,0-3.2-.855,7.605,7.605,0,0,1-4.318-1.478c-1.724-1.492-2.043-3.579-2.333-5.419-.406-2.724-.768-5.072-5-6.463a1.338,1.338,0,0,0,.072-1.362c8.593,2.594,4.55,9.172,8.115,12.244,1.855,1.594,5.028.725,7.361,2.217,6.2,3.941,2.058,8.071,4.405,12.824.522,1.058,1.478,1.913,1.971,3.072,1.927,4.477-1.435,9.708-6.1,10.172Z" transform="translate(-817.645 -67.357)" fill="#1c4233"/>
        </g>
        <g id="Group_4" data-name="Group 4" transform="translate(10.245 10.752)">
          <g id="Group_2" data-name="Group 2">
            <path id="Path_7" data-name="Path 7" d="M595.989,147.26h-.043c-.42.014-.855.043-1.29.058-9.926.493-20.011,1.464-29.792,2.391-10.723,1.029-21.779,2.087-32.516,2.507l-1.145.043h-.174c0-.3-.029-.594-.029-.869v-2.014q0-.565.043-1.13a2.785,2.785,0,0,1,.015-.348c.014-.377.043-.739.087-1.1a3.6,3.6,0,0,1,.043-.391c.029-.319.073-.623.1-.927.014-.145.043-.3.058-.464.043-.3.087-.609.145-.913.029-.145.043-.3.072-.449.029-.188.072-.377.1-.565.044-.261.1-.507.159-.753.043-.174.072-.348.116-.507.029-.116.058-.246.087-.362.1-.435.217-.855.348-1.275.087-.3.174-.594.275-.884.058-.188.13-.377.188-.565s.13-.391.2-.594c.1-.275.2-.536.3-.8s.217-.522.319-.782c.058-.13.116-.246.174-.377l.522-1.13c.058-.116.116-.246.188-.362.188-.362.377-.725.58-1.087.13-.232.275-.464.406-.7.1-.159.188-.319.29-.478.087-.13.174-.275.261-.406.1-.159.2-.319.3-.464.145-.217.3-.435.449-.652s.319-.42.478-.638.319-.42.493-.623c.333-.406.667-.811,1.014-1.2.087-.1.174-.2.261-.29.261-.29.536-.58.811-.84l.551-.551.044-.043c.174-.159.348-.333.522-.493.029-.029.073-.058.1-.087.188-.174.391-.348.58-.507,0,0,.029-.029.043-.029.188-.174.391-.333.58-.493a.314.314,0,0,1,.072-.058,3.7,3.7,0,0,1,.377-.29c.116-.087.217-.174.333-.261.464-.362.942-.7,1.435-1.029.174-.116.362-.246.536-.362s.377-.246.565-.362c.217-.13.435-.275.652-.391.159-.1.319-.188.478-.275.116-.072.232-.13.348-.2a1.729,1.729,0,0,1,.232-.116c.145-.087.275-.159.42-.232.116-.058.246-.13.362-.188a2.886,2.886,0,0,1,.3-.145c.159-.072.3-.145.464-.217.188-.087.377-.174.58-.261s.449-.2.681-.29a.053.053,0,0,0,.044-.014l.522-.217a3.538,3.538,0,0,0,.348-.145c.319-.13.652-.246.985-.362.174-.058.348-.116.522-.188.29-.1.58-.188.884-.29.217-.072.42-.13.638-.188s.464-.13.7-.188.493-.13.739-.188c.2-.043.406-.1.623-.145.072-.014.13-.029.2-.043.2-.043.391-.087.594-.116a.209.209,0,0,0,.1-.029l.7-.13a.184.184,0,0,0,.087-.014l.507-.087c.159-.029.319-.043.493-.072s.377-.058.565-.072.406-.043.623-.072a1.275,1.275,0,0,0,.246-.029l.493-.043c.145,0,.29-.029.435-.029a2.589,2.589,0,0,0,.333-.029c.2,0,.391-.029.594-.029h.188c.145,0,.29-.014.435-.014h1.2c.478,0,.942,0,1.42.029.232,0,.478.014.71.029.159,0,.333.014.493.029a1.247,1.247,0,0,1,.232.014c.159,0,.319.029.478.043a1.964,1.964,0,0,1,.29.029c.174.014.333.029.507.058a1.118,1.118,0,0,1,.217.029c.116.014.246.029.377.043.377.043.739.1,1.116.159a2.993,2.993,0,0,1,.319.058l.7.13a3.206,3.206,0,0,1,.362.072.13.13,0,0,1,.072.014c.1.014.2.043.3.058.449.1.9.2,1.348.333.174.043.333.087.507.145.522.145,1.043.3,1.551.478.232.072.478.159.71.246.072.029.145.043.2.072.217.072.435.159.638.246.261.1.507.2.768.319a.071.071,0,0,1,.043.015c.13.058.275.116.406.174.638.275,1.275.58,1.884.913.145.072.29.145.435.232a29.511,29.511,0,0,1,2.739,1.681,3.178,3.178,0,0,0,.362.246c.29.2.58.406.855.623.087.072.188.145.275.217.043.043.1.072.145.116l.435.348c.087.072.188.145.275.232.116.1.232.188.348.29.188.159.362.319.536.478.087.072.174.159.261.246s.174.174.261.246c.174.174.348.333.522.507s.333.348.507.522.333.348.493.536.319.362.478.551c.13.145.261.3.377.449.029.043.073.072.087.116a3.207,3.207,0,0,1,.2.261c.087.1.174.217.246.319.145.2.3.391.449.594l.217.3.217.3c.073.1.145.2.217.319a2.391,2.391,0,0,1,.2.319c.072.1.13.217.2.319s.145.217.2.319.116.174.174.275c.1.159.188.319.275.478.116.188.217.391.333.58.116.217.232.42.348.638a.86.86,0,0,1,.058.116c.1.188.188.377.275.551.029.072.073.13.1.2.072.145.13.29.2.42a3.7,3.7,0,0,1,.159.348c.073.159.145.319.2.478.029.058.058.13.087.188.087.217.174.42.261.638.159.406.319.811.464,1.232.029.1.073.188.1.29a.243.243,0,0,0,.029.072c.087.246.174.507.246.753s.159.536.232.8a34.1,34.1,0,0,1,.812,3.391c.058.29.1.594.159.884.029.145.043.3.073.449s.043.3.072.449c.029.261.073.522.1.782a.839.839,0,0,0,.029.188c.029.29.072.58.1.884Z" transform="translate(-531 -117.7)" fill="#c8c6af"/>
            <path id="Path_8" data-name="Path 8" d="M597.916,342.562l-.058.956c-.275,0-.536.029-.8.043-20.924,1-42.181,4.13-63.061,4.927-.3.015-.623.029-.927.029l-.029-.942c-.014-.13-.029-.261-.043-.377h.029l1.3-.043c10.781-.42,21.851-1.478,32.56-2.507,9.766-.942,19.837-1.9,29.719-2.391.406-.014.811-.043,1.217-.058h.1v.362Z" transform="translate(-532.71 -309.67)" fill="#c8c6af"/>
          </g>
          <g id="Group_3" data-name="Group 3" transform="translate(14.928 7.007)">
            <path id="Path_9" data-name="Path 9" d="M813.453,198.956a2.864,2.864,0,0,1,1.521.072c1.869,1-1.942,5.521-3.246,3.565C810.99,201.478,812.482,199.246,813.453,198.956Z" transform="translate(-785.809 -194.125)" fill="#828337"/>
            <path id="Path_10" data-name="Path 10" d="M735.229,166.134c1.145-.478,4.144,1.319,3.9,2.652C738.606,171.481,732.81,168.018,735.229,166.134Z" transform="translate(-720.061 -166.055)" fill="#828337"/>
            <path id="Path_11" data-name="Path 11" d="M703.675,303.416c4.477-1.377.072,6.3-1.724,3.637C701.211,305.952,702.747,303.706,703.675,303.416Z" transform="translate(-691.941 -283.37)" fill="#828337"/>
            <path id="Path_12" data-name="Path 12" d="M808.561,282.245c1.159-.493,4.086,1.492,3.9,2.652C811.951,288.041,805.822,283.4,808.561,282.245Z" transform="translate(-782.67 -265.343)" fill="#828337"/>
            <path id="Path_13" data-name="Path 13" d="M635.96,221.54c3.246-.551.855,4.246-1.043,3.869S634.511,221.786,635.96,221.54Z" transform="translate(-634.021 -213.462)" fill="#828337"/>
            <path id="Path_14" data-name="Path 14" d="M900.39,260.542c2.623-1.087,2.7,3.623,1.246,4.072C899.607,265.251,899.317,260.977,900.39,260.542Z" transform="translate(-861.269 -246.712)" fill="#828337"/>
          </g>
        </g>
      </g>
      <g id="Group_8" data-name="Group 8" transform="translate(0 0)">
        <g id="Group_6" data-name="Group 6" transform="translate(14.574 16.157)">
          <path id="Path_15" data-name="Path 15" d="M526.2,377.733a1.25,1.25,0,0,1-.8.406h-.058a1.26,1.26,0,0,1-.942-.3,1.321,1.321,0,0,1-.464-.855c-.014-.145-.029-.275-.043-.42a.705.705,0,0,0,.174-.014c.261-.029.536-.058.812-.087.116,0,.232-.014.348-.014h.029l1.3-.043a1.764,1.764,0,0,0,.029.275,1.315,1.315,0,0,1-.348,1.058Z" transform="translate(-523.9 -339.624)" fill="#486859"/>
          <path id="Path_16" data-name="Path 16" d="M662.642,122.6a7.028,7.028,0,0,1-1.942.739C661.338,123.064,661.99,122.817,662.642,122.6Z" transform="translate(-640.877 -122.6)" fill="#486859"/>
          <path id="Path_17" data-name="Path 17" d="M974.452,342.02a1.311,1.311,0,0,1-.391.971,1.349,1.349,0,0,1-.9.391,1.388,1.388,0,0,1-.9-.319,1.326,1.326,0,0,1-.464-.971v-.333c.406-.014.811-.043,1.217-.058h.116a4.908,4.908,0,0,0,1.3-.1A4.062,4.062,0,0,0,974.452,342.02Z" transform="translate(-906.898 -309.866)" fill="#486859"/>
        </g>
        <g id="Group_7" data-name="Group 7">
          <path id="Path_18" data-name="Path 18" d="M457.716,28a8.079,8.079,0,0,0,1.942-.739C459.006,27.488,458.354,27.735,457.716,28Zm0,0a8.079,8.079,0,0,0,1.942-.739C459.006,27.488,458.354,27.735,457.716,28Zm0,0a8.079,8.079,0,0,0,1.942-.739C459.006,27.488,458.354,27.735,457.716,28Zm0,0a8.079,8.079,0,0,0,1.942-.739C459.006,27.488,458.354,27.735,457.716,28Zm0,0a8.079,8.079,0,0,0,1.942-.739C459.006,27.488,458.354,27.735,457.716,28Zm0,0a8.079,8.079,0,0,0,1.942-.739C459.006,27.488,458.354,27.735,457.716,28Zm57.41,20.5a12.537,12.537,0,0,0-1.565-2.579,5.945,5.945,0,0,1-.493-.71,6.6,6.6,0,0,1-.348-3.188c.1-3.028.275-7.607-5.608-11.346a12.783,12.783,0,0,0-5.506-1.7,13.215,13.215,0,0,1-1.406-.217,9.715,9.715,0,0,1-.391-1.927c-.464-3.043-1.319-8.709-9.245-11.1a11.845,11.845,0,0,0-3.391-.522,12.025,12.025,0,0,0-6.245,1.956,6.627,6.627,0,0,1-1.362.667,10.235,10.235,0,0,1-1.7-1.579,15.434,15.434,0,0,0-6.173-4.492c-.1-.029-.2-.072-.275-.087h-.043a11.289,11.289,0,0,0-3.623-.58,13.052,13.052,0,0,0-9.839,4.637,15.216,15.216,0,0,0-1.8,2.84c-.13.246-.391.739-.58,1.029-.145-.058-.362-.174-.536-.246a11.663,11.663,0,0,0-2.275-.884,13.294,13.294,0,0,0-3.362-.435,12.612,12.612,0,0,0-7.144,2.217,13.3,13.3,0,0,0-5.666,9.52,12.6,12.6,0,0,0,.029,2.811c.014.246.043.536.043.7h0a5.326,5.326,0,0,1-1.811.667A12.882,12.882,0,0,0,427.1,38.7c-3.115,4.2-2.333,7.694-1.826,10a6.333,6.333,0,0,1,.261,2.029,9.163,9.163,0,0,1-.8,2.2c-1.029,2.289-2.739,6.115.3,11.013,3.188,5.144,7.52,5.912,11.723,5.97h.159a16.041,16.041,0,0,0,1.782-.13c.275-.029.551-.058.739-.072,4.275-.145,8.839-.406,13.969-.8,6.8-.507,13.621-1.159,20.228-1.8h.043c10.027-.956,20.373-1.956,30.429-2.42h.3a11.6,11.6,0,0,0,9.477-5.1,11.454,11.454,0,0,0,1.246-11.114ZM505.432,58.99a5.536,5.536,0,0,1-1.3.1h-.116c-.406.014-.811.043-1.217.058-9.868.493-19.953,1.449-29.719,2.391-10.708,1.029-21.764,2.087-32.56,2.507l-1.3.043h-.029a2.793,2.793,0,0,0-.348.014,7.71,7.71,0,0,0-.811.087.706.706,0,0,0-.174.014,9.253,9.253,0,0,1-1.043.072c-3.188-.043-5.173-.536-6.825-2.985-.072-.1-.145-.217-.217-.319-1.464-2.362-.855-3.7.043-5.738a13.891,13.891,0,0,0,1.232-3.681,10.748,10.748,0,0,0-.333-4.072c-.42-1.913-.739-3.3.84-5.434,1.3-1.768,2.941-2.2,4.666-2.666,1.681-.449,3.579-.971,4.9-2.782a5.91,5.91,0,0,0,1-4.521,7.89,7.89,0,0,1-.029-1.652,7.75,7.75,0,0,1,3.26-5.521,7.056,7.056,0,0,1,5.9-.985.087.087,0,0,1,.058.014,10.044,10.044,0,0,1,1.2.493,6.436,6.436,0,0,0,3.2.855h.159c3.13-.159,4.26-2.333,5.188-4.072a10.192,10.192,0,0,1,1.13-1.84,7.136,7.136,0,0,1,7.434-2.333l.1.029a.629.629,0,0,0,.072.014c.072.029.13.043.188.072a10.792,10.792,0,0,1,3.753,2.956c1.565,1.666,3.2,3.405,5.9,3.362h.159a8.582,8.582,0,0,0,3.912-1.406c1.536-.884,2.855-1.637,5.216-.927a2.5,2.5,0,0,1,.3.1c4.231,1.377,4.593,3.738,5,6.463.275,1.84.594,3.927,2.333,5.419a7.642,7.642,0,0,0,4.318,1.478,7.637,7.637,0,0,1,3.2.855c3.159,2.014,3.1,3.854,3,6.4a11.527,11.527,0,0,0,.927,5.9,9.57,9.57,0,0,0,1.029,1.579,7.536,7.536,0,0,1,.913,1.42,5.878,5.878,0,0,1-.7,5.695,6.158,6.158,0,0,1-3.811,2.579ZM459.658,27.257c-.652.232-1.3.478-1.942.739A8.079,8.079,0,0,0,459.658,27.257ZM457.716,28a8.079,8.079,0,0,0,1.942-.739C459.006,27.488,458.354,27.735,457.716,28Zm0,0a8.079,8.079,0,0,0,1.942-.739C459.006,27.488,458.354,27.735,457.716,28Zm0,0a8.079,8.079,0,0,0,1.942-.739C459.006,27.488,458.354,27.735,457.716,28Zm0,0a8.079,8.079,0,0,0,1.942-.739C459.006,27.488,458.354,27.735,457.716,28Zm0,0a8.079,8.079,0,0,0,1.942-.739C459.006,27.488,458.354,27.735,457.716,28Zm0,0a8.079,8.079,0,0,0,1.942-.739C459.006,27.488,458.354,27.735,457.716,28Z" transform="translate(-423.319 -11.1)" fill="#c8c6af"/>
          <path id="Path_19" data-name="Path 19" d="M529.7,67.306a10.045,10.045,0,0,0-1.217-1.956,8.256,8.256,0,0,1-.782-1.174,9.123,9.123,0,0,1-.652-4.622c.1-2.768.2-5.9-4.231-8.723a9.926,9.926,0,0,0-4.289-1.246,5.7,5.7,0,0,1-2.927-.855c-.985-.855-1.188-2.159-1.435-3.811-.435-2.884-1.029-6.839-7.158-8.694-3.449-1.043-5.579.174-7.289,1.159a5.924,5.924,0,0,1-2.8,1.058c-1.449.029-2.434-.942-3.912-2.521a12.737,12.737,0,0,0-5-3.724c-.058-.014-.116-.043-.174-.058h-.058a9.675,9.675,0,0,0-10.274,3.13,13.113,13.113,0,0,0-1.449,2.318c-.913,1.724-1.464,2.623-3.086,2.666A4.131,4.131,0,0,1,471,39.659a9.247,9.247,0,0,0-1.739-.7,9.741,9.741,0,0,0-8.071,1.362,10.312,10.312,0,0,0-4.391,7.39,10.811,10.811,0,0,0,.029,2.188,3.389,3.389,0,0,1-.507,2.724c-.782,1.058-1.956,1.391-3.449,1.782a9.95,9.95,0,0,0-6.115,3.652c-2.3,3.1-1.768,5.492-1.3,7.578a8.393,8.393,0,0,1,.29,3.115,11.72,11.72,0,0,1-1.014,2.985c-.985,2.188-2.087,4.666.116,8.216a8.853,8.853,0,0,0,3.985,3.652,14.538,14.538,0,0,0,6.8.811c.348-.043.667-.072.985-.087,4.579-.159,9.216-.435,13.853-.782,6.767-.507,13.534-1.145,20.17-1.782,10.114-.971,20.562-1.971,30.734-2.434a8.832,8.832,0,0,0,8.3-12.056Zm-3.13,6.723a6.158,6.158,0,0,1-3.811,2.579,5.536,5.536,0,0,1-1.3.1h-.116c-.406.014-.811.043-1.217.058-9.868.493-19.953,1.449-29.719,2.391-10.708,1.029-21.764,2.087-32.559,2.507l-1.3.043h-.029a2.792,2.792,0,0,0-.348.014,7.709,7.709,0,0,0-.811.087.706.706,0,0,0-.174.014,9.255,9.255,0,0,1-1.043.072c-3.188-.043-5.173-.536-6.825-2.985-.072-.1-.145-.217-.217-.319-1.464-2.362-.855-3.695.043-5.738a13.89,13.89,0,0,0,1.232-3.681,10.749,10.749,0,0,0-.333-4.072c-.42-1.913-.739-3.3.84-5.434,1.3-1.768,2.942-2.2,4.666-2.666,1.681-.449,3.579-.971,4.9-2.782a5.911,5.911,0,0,0,1-4.521,7.89,7.89,0,0,1-.029-1.652,7.75,7.75,0,0,1,3.26-5.521,7.056,7.056,0,0,1,5.9-.985.087.087,0,0,1,.058.014,10.046,10.046,0,0,1,1.2.493,6.436,6.436,0,0,0,3.2.855h.159c3.13-.159,4.26-2.333,5.188-4.072a10.192,10.192,0,0,1,1.13-1.84,7.136,7.136,0,0,1,7.433-2.333l.1.029a.625.625,0,0,0,.072.014c.072.029.13.043.188.072a10.792,10.792,0,0,1,3.753,2.956c1.565,1.666,3.2,3.405,5.9,3.362h.159a8.582,8.582,0,0,0,3.912-1.406c1.536-.884,2.855-1.637,5.216-.927a2.5,2.5,0,0,1,.3.1c4.231,1.377,4.593,3.738,5,6.463.275,1.84.594,3.927,2.333,5.419a7.642,7.642,0,0,0,4.318,1.478,7.636,7.636,0,0,1,3.2.855c3.159,2.014,3.1,3.854,3,6.4a11.526,11.526,0,0,0,.927,5.9,9.571,9.571,0,0,0,1.029,1.579,7.538,7.538,0,0,1,.913,1.42,5.878,5.878,0,0,1-.7,5.695Z" transform="translate(-440.629 -28.719)" fill="#486859"/>
          <path id="Path_20" data-name="Path 20" d="M542.817,83.93a7.1,7.1,0,0,0-.913-1.42,10.218,10.218,0,0,1-1.029-1.579,11.527,11.527,0,0,1-.927-5.9c.087-2.55.159-4.391-3-6.4a7.636,7.636,0,0,0-3.2-.855,7.606,7.606,0,0,1-4.318-1.478c-1.724-1.492-2.043-3.579-2.333-5.419-.406-2.724-.768-5.072-5-6.463-.1-.029-.2-.072-.3-.1-2.362-.71-3.681.043-5.216.927a8.52,8.52,0,0,1-3.912,1.406H512.5c-2.7.043-4.318-1.681-5.9-3.362a10.662,10.662,0,0,0-3.753-2.956c-.058-.029-.13-.043-.188-.072-.029,0-.043-.014-.072-.014l-.1-.029a7.163,7.163,0,0,0-7.434,2.333,10.725,10.725,0,0,0-1.13,1.84c-.927,1.739-2.058,3.9-5.188,4.072h-.159a6.48,6.48,0,0,1-3.2-.855,6.014,6.014,0,0,0-1.2-.493.087.087,0,0,1-.058-.014,7.065,7.065,0,0,0-5.9.985,7.694,7.694,0,0,0-3.26,5.521,9.012,9.012,0,0,0,.029,1.652,5.91,5.91,0,0,1-1,4.521c-1.319,1.826-3.217,2.333-4.9,2.782-1.724.464-3.362.913-4.666,2.666-1.579,2.13-1.275,3.521-.84,5.434a11.049,11.049,0,0,1,.333,4.072,13.89,13.89,0,0,1-1.232,3.681c-.913,2.029-1.521,3.376-.043,5.738.072.116.145.217.217.319,1.652,2.449,3.637,2.942,6.825,2.985a9.254,9.254,0,0,0,1.043-.072.706.706,0,0,0,.174-.014c.261-.029.536-.058.811-.087.116,0,.232-.014.348-.014h.029l1.3-.043c10.781-.42,21.851-1.478,32.56-2.507,9.766-.942,19.837-1.9,29.719-2.391.406-.014.811-.043,1.217-.058h.116a4.909,4.909,0,0,0,1.3-.1,6.063,6.063,0,0,0,3.811-2.579,5.874,5.874,0,0,0,.7-5.695Zm-3.144,3.985a3.381,3.381,0,0,1-1.565,1.246,2.386,2.386,0,0,1-.84.145h-.522c-.42.014-.855.043-1.29.058-9.926.493-20.011,1.464-29.792,2.391-10.723,1.029-21.779,2.087-32.516,2.507L472,94.3h-.174a2.566,2.566,0,0,0-.333.014c-.319.014-.623.058-.913.087h-.072c-.29.029-.565.058-.754.058-2.956-.043-3.652-.478-4.55-1.913-.623-1.014-.594-1.087.232-2.942a16.243,16.243,0,0,0,1.449-4.477,13.67,13.67,0,0,0-.377-5.159c-.377-1.71-.435-1.971.333-3.014.667-.9,1.42-1.13,3.057-1.565a10.906,10.906,0,0,0,6.535-3.912A8.805,8.805,0,0,0,478,64.933a5.5,5.5,0,0,1-.043-1.043,4.75,4.75,0,0,1,1.971-3.391,3.971,3.971,0,0,1,2.3-.71,2.593,2.593,0,0,1,1.145.145,5.071,5.071,0,0,1,.725.319,9.386,9.386,0,0,0,4.333,1.159h.246a8.35,8.35,0,0,0,1.884-.246c.638-.275,1.29-.522,1.942-.739h0a10.509,10.509,0,0,0,4.057-4.68,9.277,9.277,0,0,1,.782-1.319,4.419,4.419,0,0,1,3.26-1.565c1.2,0,.667.043.971.145l.13.043a8.387,8.387,0,0,1,2.724,2.246,16.2,16.2,0,0,0,3.811,3.231,34.356,34.356,0,0,1,5.477.956,12.254,12.254,0,0,0,4.318-1.7,4.216,4.216,0,0,1,1.971-.811,1.781,1.781,0,0,1,.884.159c2.724.826,2.84,1.594,3.217,4.144a17.762,17.762,0,0,0,.753,3.405,29.981,29.981,0,0,1,5.811,5.521,19.169,19.169,0,0,0,2.652.478,6.885,6.885,0,0,1,1.971.42c1.724,1.1,1.71,1.449,1.623,3.782a14.27,14.27,0,0,0,1.232,7.318,12.839,12.839,0,0,0,1.319,2.043,5.354,5.354,0,0,1,.551.811,2.913,2.913,0,0,1-.406,2.811Z" transform="translate(-456.182 -44.299)" fill="#1c4233"/>
          <path id="Path_21" data-name="Path 21" d="M589.309,138.887a2.386,2.386,0,0,1-.84.145h-.522c-.42.014-.855.043-1.29.058-1.174-11.476-6.825-20.257-16.157-24.952a33.745,33.745,0,0,0-33.69,2.507c-8.651,6.071-13.012,15.707-12.476,27.329l-1.145.043h-.174a2.568,2.568,0,0,0-.333.014c-.319.014-.623.058-.913.087H521.7a36.6,36.6,0,0,1,2.8-16.49,31.4,31.4,0,0,1,10.8-13.172,33.906,33.906,0,0,1,6.477-3.565,8.079,8.079,0,0,0,1.942-.739h0a37.169,37.169,0,0,1,9.419-1.956h0a36.566,36.566,0,0,1,6.3.072,34.654,34.654,0,0,1,12.23,3.478,31.305,31.305,0,0,1,4.4,2.681,30.767,30.767,0,0,1,8.071,8.709,36.336,36.336,0,0,1,5.115,15.736Z" transform="translate(-507.399 -94.04)" fill="#486859"/>
        </g>
        <path id="Path_22" data-name="Path 22" d="M594.667,320.878a1.231,1.231,0,0,1-.768-.2l-1-.667a1.232,1.232,0,0,1,1.377-2.043l1,.667a1.233,1.233,0,0,1,.333,1.71,1.162,1.162,0,0,1-.927.536Z" transform="translate(-567.863 -273.322)" fill="#828337"/>
      </g>
    </g>
    <g id="Group_13" data-name="Group 13" transform="translate(2.4 38.965)">
      <g id="Group_9" data-name="Group 9" transform="translate(5.521 33.559)">
        <path id="Path_23" data-name="Path 23" d="M91.245,505.828H89.651c-2.7,0-5.68-1.043-9.129-3.217-.058-.043-.13-.087-.188-.13a19.769,19.769,0,0,1-7.8-12.722,40.473,40.473,0,0,1-3.173,4.028l-.087.087a12.1,12.1,0,0,1-9.042,3.912h-.058c-3.072,0-6.521-1.13-10.534-3.449a1.883,1.883,0,0,1-.217-.145,20.29,20.29,0,0,1-5.738-5.912.453.453,0,0,1-.072-.145A24.794,24.794,0,0,1,40.5,476.355V474.8a45.473,45.473,0,0,1,3.623-16.736.11.11,0,0,1,.029-.058,51.806,51.806,0,0,1,4.115-7.665,53.088,53.088,0,0,1,5.2-6.564,1.754,1.754,0,0,1,.232-.232c3.956-3.579,5.767-4.695,6.854-5.173a27.255,27.255,0,0,1,6.723-2.724c.072-.014.13-.029.2-.043A19.545,19.545,0,0,1,71.393,435h2.1c2.42,0,5.434.811,9.216,2.463a1.582,1.582,0,0,1,.217.116,18.86,18.86,0,0,1,3.825,2.826l.13.13A18.571,18.571,0,0,1,90.94,446.9c.014.058.043.1.058.159a15.513,15.513,0,0,1,.855,4.477v.174a11.824,11.824,0,0,1-.71,4.463c.681.319,1.377.667,2.1,1.072a.974.974,0,0,1,.159.1,5.3,5.3,0,0,1,2.7,4.55v.246c0,1.536-.725,3.666-4.217,9.114-3.434,5.854-5.173,11.172-5.187,15.838.072,2.652.7,4.434,1.855,5.3h.116a7.461,7.461,0,0,1,.782-.174,8.859,8.859,0,0,0,2.811-1.956,24.629,24.629,0,0,0,4.753-9.969c.014-.058.029-.13.043-.188a140.772,140.772,0,0,0,3.275-16.33,2.869,2.869,0,0,1,.116-.478,8.811,8.811,0,0,1,3.55-4.8l.029-.014a26.131,26.131,0,0,1,9.578-3.579,9.74,9.74,0,0,1,1.637-.159h.913c4.072.348,4.289,3.289,4.289,3.869v.174c0,1.565-.319,5.043-3.13,17.2a.423.423,0,0,1-.029.13,72.65,72.65,0,0,1-5.637,14.91,27.993,27.993,0,0,1-4.593,6.274l-.1.1c-3.231,3.115-5.492,4.985-7.115,5.869a.11.11,0,0,0-.058.029c-3.13,1.608-4.622,2.058-5.579,2.159a18.3,18.3,0,0,1-2.188.362c-.116,0-.232.014-.362.014h-.42ZM73.262,455.591a20.836,20.836,0,0,0-3.652,4.159c-.029.058-.072.116-.1.174a50.4,50.4,0,0,0-5.318,10.694,44.094,44.094,0,0,0-2.739,12.056c.246-.42.507-.913.811-1.478a.11.11,0,0,1,.029-.058c2.087-3.811,4.463-7.912,7.086-12.172,0-.015.029-.043.043-.058a111.154,111.154,0,0,1,6.839-9.187c.029-.043.072-.072.1-.116a24,24,0,0,1,4.42-4.086c-.2-.217-.391-.449-.594-.7-1.377-1.174-2.014-1.188-2.043-1.188h-.536c-.782,0-2.159.348-4.347,1.985Z" transform="translate(-40.5 -435)" fill="#c8c6af"/>
        <path id="Path_24" data-name="Path 24" d="M135.1,476.191v.174q0,3.282-3.057,16.533a69.645,69.645,0,0,1-5.39,14.316,25,25,0,0,1-4.13,5.637,37.717,37.717,0,0,1-6.463,5.39c-2.42,1.246-4,1.855-4.738,1.855a13.27,13.27,0,0,1-2.043.362h-.42c-.275,0-.638,0-1.1-.014a.109.109,0,0,1-.072.014h-.42c-2.1,0-4.608-.913-7.549-2.753q-7.064-5.216-7.071-15.809v-.478a47.52,47.52,0,0,1,.594-6.651v-.058h-.058c-1.246,2.913-2.782,6.1-4.608,9.593a32.594,32.594,0,0,1-3.825,5.144,9.181,9.181,0,0,1-6.883,3h-.058q-3.782,0-9.042-3.057a17.131,17.131,0,0,1-4.912-5.028A21.636,21.636,0,0,1,61.1,494v-1.55a42.4,42.4,0,0,1,3.405-15.635,48.3,48.3,0,0,1,3.9-7.245,49.417,49.417,0,0,1,4.912-6.173c3-2.724,5.086-4.289,6.231-4.738a24.067,24.067,0,0,1,6.173-2.521,20.336,20.336,0,0,1,3.289-.536h2.1q2.956,0,8.028,2.217a16.6,16.6,0,0,1,3.231,2.391,15.4,15.4,0,0,1,3.405,5.332,13.247,13.247,0,0,1,.725,3.594v.174c0,2.956-.594,4.434-1.8,4.434s-2.9-1.145-4.738-3.42c-1.565-1.391-2.971-2.1-4.188-2.1h-.536c-1.84,0-3.927.9-6.289,2.7a24.153,24.153,0,0,0-4.318,4.97A53.9,53.9,0,0,0,79,487.2a43.661,43.661,0,0,0-2.942,14.2c0,3.956.3,3.391.9,3.767a1.712,1.712,0,0,0,1.072.362q1.717,0,4.492-5.39,3.108-5.673,7-12.041a100.513,100.513,0,0,1,6.651-8.926q3.521-3.869,4.738-3.956c0-.087.362-.145,1.072-.174a15.979,15.979,0,0,1,7.419,2.391,2.4,2.4,0,0,1,1.319,2.043v.246c0,1.13-1.261,3.637-3.767,7.549q-5.629,9.564-5.637,17.432c.1,4.13,1.377,6.854,3.825,8.144a10.728,10.728,0,0,0,1.507.116,8.462,8.462,0,0,1,1.232-.3,11.878,11.878,0,0,0,4.188-2.811,27.5,27.5,0,0,0,5.448-11.317,143.176,143.176,0,0,0,3.362-16.707,5.863,5.863,0,0,1,2.333-3.231,23.2,23.2,0,0,1,8.506-3.173,8.227,8.227,0,0,1,1.13-.116h.652c1.043.087,1.55.391,1.55.9Z" transform="translate(-58.115 -452.615)" fill="#1c4233"/>
        <path id="Path_25" data-name="Path 25" d="M486.652,614.343a7.626,7.626,0,0,1-5.1-1.724,2.974,2.974,0,0,1-.464-.493,5.184,5.184,0,0,1-1.188-3.087v-.116a3.328,3.328,0,0,1,.072-.652,4.085,4.085,0,0,1,3.985-3.521c1.536,0,.681.058,1,.174s.551.188.681.232h.072a10.241,10.241,0,0,0,1.072-1.246,25.764,25.764,0,0,0,2.7-5.216c1.869-5.608,3.594-11.476,5.115-17.432a.654.654,0,0,1,.043-.159,182.854,182.854,0,0,0,4.347-18.113c.217-1.2.449-2.985.681-5.3a1.7,1.7,0,0,1,.058-.377,9.617,9.617,0,0,1,3.217-5.579,28.215,28.215,0,0,1,9.824-4.709c.072-.014.13-.029.2-.044a17.51,17.51,0,0,1,3.55-.478c.869,0,.217,0,.333.015,3.956.435,4.159,3.347,4.159,3.927,0,2.42-.725,7.173-2.217,14.548a.342.342,0,0,1-.029.116c-1.956,8.071-3.318,13.447-4.043,15.939v.043c-2.869,9.4-5.593,16.026-8.288,20.214a33.185,33.185,0,0,1-3.811,5.666c-.043.058-.087.1-.13.159-2.405,2.55-4.115,4-5.535,4.68a18.1,18.1,0,0,1-6.68,2.463,6.367,6.367,0,0,1-1.275.145h-2.333Z" transform="translate(-416.23 -530.344)" fill="#c8c6af"/>
        <path id="Path_26" data-name="Path 26" d="M534.075,566.7c1,.116,1.492.435,1.492.956q0,3.3-2.159,13.954-2.934,12.107-4.014,15.809-4.195,13.737-8.028,19.591a29.659,29.659,0,0,1-3.536,5.275,19.137,19.137,0,0,1-4.738,4.072,15.514,15.514,0,0,1-5.753,2.159,7.352,7.352,0,0,1-.84.116h-2.333a4.715,4.715,0,0,1-3.173-1.014,2.409,2.409,0,0,1-.594-1.319v-.116c.174-.8.536-1.2,1.072-1.2a6.363,6.363,0,0,0,1.55.42h.362a.476.476,0,0,0,.246-.058.456.456,0,0,0,.174.058c.652,0,1.623-.811,2.869-2.449a28.066,28.066,0,0,0,3.115-5.984q2.869-8.585,5.216-17.736a183.2,183.2,0,0,0,4.434-18.446c.246-1.29.478-3.144.724-5.564a6.656,6.656,0,0,1,2.159-3.9,25.078,25.078,0,0,1,8.81-4.188,16.024,16.024,0,0,1,2.941-.42Z" transform="translate(-433.759 -547.616)" fill="#1c4233"/>
        <path id="Path_27" data-name="Path 27" d="M745.563,612.878a14.794,14.794,0,0,1-6.071-1.406,3.216,3.216,0,0,1-.609-.362c-.594-.464-2.42-1.869-2.42-4.043s1.1-3.8,4.2-4.159c.116,0,.232-.014.348-.014h.174a13.467,13.467,0,0,1,3.144.652h.7c2.594,0,5.1-3.2,6.752-5.912.377-.71.725-1.42,1.058-2.145a32.161,32.161,0,0,1-4.8-1.406,22.577,22.577,0,0,1-7.318-4.68l-.174-.174a18.208,18.208,0,0,1-3.8-5.767,15.754,15.754,0,0,1-1.377-4.579,19.415,19.415,0,0,1-.377-3.159v-1.2a33.291,33.291,0,0,1,.869-6.854c.116-.884.594-2.376,2.376-6.347.015-.029.029-.072.044-.1a34.7,34.7,0,0,1,5.173-7.173,1.345,1.345,0,0,1,.2-.2c3.767-3.507,6.955-5.767,9.723-6.912a22.95,22.95,0,0,1,8.013-2.145h.13c.058,0,.3-.029.985-.145a2.835,2.835,0,0,1,.493-.043h.956a2.937,2.937,0,0,1,1.275.29h.275a3.157,3.157,0,0,1,.826.116,20.428,20.428,0,0,1,10.534,6.8c2.666,3.275,4.014,7.622,4.014,12.954v1.014c0,6.216-1.666,14.229-4.956,23.793a.308.308,0,0,1-.043.1c-2.2,5.695-4.448,9.94-6.854,12.983-.015.029-.043.043-.058.072a28.094,28.094,0,0,1-4.854,4.753,28.784,28.784,0,0,1-5.984,3.391,30.071,30.071,0,0,1-8.883,1.956h-3.709Zm9.9-30.516a14.408,14.408,0,0,0,1.464.753c2.492-9.216,3.753-16.331,3.753-21.156v-1.014a4.2,4.2,0,0,0-.42-2.275c-1.55.159-3.55,2.666-5.4,6.767a29.7,29.7,0,0,0-2.232,9.535v.724A8.371,8.371,0,0,0,755.46,582.362Z" transform="translate(-634.366 -528.719)" fill="#c8c6af"/>
        <path id="Path_28" data-name="Path 28" d="M780.268,565.3h.956a3.078,3.078,0,0,0,1.551.3,17.3,17.3,0,0,1,9.042,5.811q3.347,4.108,3.347,11.085v1.014q0,8.89-4.8,22.822a48.3,48.3,0,0,1-6.4,12.215,25.934,25.934,0,0,1-4.318,4.26,25.535,25.535,0,0,1-5.39,3.057,27.692,27.692,0,0,1-8.028,1.739h-3.42a11.715,11.715,0,0,1-4.854-1.145c-.84-.652-1.261-1.2-1.261-1.681,0-.681.522-1.072,1.55-1.2h.174c.145,0,1,.2,2.579.594a4.986,4.986,0,0,0,.84.058h.42q4.847,0,9.346-7.433a47.755,47.755,0,0,0,2.579-5.753c0-.261-.8-.435-2.391-.536a34.418,34.418,0,0,1-5.448-1.492A19.679,19.679,0,0,1,760,604.945a15.255,15.255,0,0,1-3.231-4.854,13.394,13.394,0,0,1-1.2-3.9,17.45,17.45,0,0,1-.362-2.753v-1.014a30.129,30.129,0,0,1,.84-6.463c0-.609.724-2.507,2.159-5.695a32.511,32.511,0,0,1,4.738-6.535q5.216-4.869,8.868-6.347a20.069,20.069,0,0,1,7.013-1.913,11.044,11.044,0,0,0,1.435-.174Zm-13.36,27.372v.724a11.3,11.3,0,0,0,4.072,9.1,10.274,10.274,0,0,0,4.912,1.8c1.275,0,.826-.7,1.014-2.1q4.021-14.715,4.014-22.518V578.66c0-2.782-.8-4.506-2.391-5.144a3,3,0,0,0-.84-.116q-4.456,0-8.332,8.622-2.456,6.586-2.449,10.665Z" transform="translate(-651.638 -546.419)" fill="#1c4233"/>
      </g>
      <g id="Group_10" data-name="Group 10" transform="translate(111.821 25.039)">
        <path id="Path_29" data-name="Path 29" d="M782.345,407.174h-.261a12.7,12.7,0,0,1-2.405-.3,1.21,1.21,0,0,1-.217-.058,7.952,7.952,0,0,1-2.927-1.623c-.029-.029-.073-.058-.1-.087a7.334,7.334,0,0,1-1.261-1.521c-.029-.058-.058-.1-.087-.159a7.565,7.565,0,0,1-.913-2.782c-.029-.275-.058-.522-.072-.753v-.145a25.516,25.516,0,0,1,.667-4.695,2.932,2.932,0,0,1,.551-1.2,3.453,3.453,0,0,1,2.768-1.348h.261a7.649,7.649,0,0,1,3.188,1.043c.058.043.13.072.188.116a4.22,4.22,0,0,1,.869.811l.667-4.84v-.072c.073-.449.13-1.014.174-1.666a.639.639,0,0,1,.029-.232,5.559,5.559,0,0,1,.406-1.652,4.592,4.592,0,0,1,1.1-1.435c.043-.043.1-.087.145-.13a9.285,9.285,0,0,1,2.463-1.333c.058-.015.116-.043.174-.058a7.912,7.912,0,0,1,1.42-.3,3.957,3.957,0,0,1,.594-.043,3.059,3.059,0,0,1,1.072.2,3.194,3.194,0,0,1,2.289,3.057v.174a2.559,2.559,0,0,1-.015.333c.29-.058.609-.116.956-.159l.246-.029c.1,0,.2-.014.3-.014h.159a3.216,3.216,0,0,1,.739.087.5.5,0,0,1,.13.014,3.793,3.793,0,0,1,.551.13,6.249,6.249,0,0,1,4.463,6.231v.3a17.577,17.577,0,0,1-1,5.187.207.207,0,0,1-.029.087,14.625,14.625,0,0,1-1.435,3.043,7.874,7.874,0,0,1-1.13,1.377l-.043.043a8.238,8.238,0,0,1-3.608,1.84,12.874,12.874,0,0,1-3.2.42h-1.3a5.012,5.012,0,0,1-1.217-.159c-.217.217-.464.435-.739.667a1.106,1.106,0,0,1-.159.116,7.135,7.135,0,0,1-3.3,1.406,8.22,8.22,0,0,1-.884.1h-.174Z" transform="translate(-774.1 -381.758)" fill="#c8c6af"/>
        <path id="Path_30" data-name="Path 30" d="M885.595,386.068a4.665,4.665,0,0,1-4.2-2.594,2.137,2.137,0,0,1-.145-.319,4.947,4.947,0,0,1-.348-1.8v-.072a5.121,5.121,0,0,1,2.246-4.188c.087-.058.174-.116.275-.174a5.062,5.062,0,0,1,2.565-.725h.072a4.689,4.689,0,0,1,4.072,2.362c.058.087.1.188.159.29a4.812,4.812,0,0,1,.478,2.072V381a5.1,5.1,0,0,1-2.246,4.188l-.261.174a5.1,5.1,0,0,1-2.565.725h-.073Z" transform="translate(-865.424 -376.2)" fill="#c8c6af"/>
        <path id="Path_31" data-name="Path 31" d="M919.143,406.829a6.256,6.256,0,0,1-3.507-.956,1.933,1.933,0,0,1-.275-.2,3.557,3.557,0,0,1-1.261-2.782,4.65,4.65,0,0,1,.724-2.594,3.938,3.938,0,0,1,.348-.507,3.26,3.26,0,0,1,1.145-.884,8.139,8.139,0,0,1-.3-1.029.753.753,0,0,0-.029-.159c-.145-.884-.261-1.8-.348-2.71-.13-.956-.232-2.058-.319-3.391-.087-.638-.13-1.116-.159-1.464v-.116a3.582,3.582,0,0,1-.029-.406v-.145c0-.13-.015-.261-.015-.391v-.377a3.552,3.552,0,0,1-.014-.391v-.667a2.362,2.362,0,0,1,.014-.319v-.072a3.3,3.3,0,0,1,1.782-2.927,2.848,2.848,0,0,1,.58-.232,3.613,3.613,0,0,1,1.072-.174,8.722,8.722,0,0,1,2,.29c.1.029.188.058.29.087a9.256,9.256,0,0,1,1.174.493,6.5,6.5,0,0,1,2.159-1.521,7.887,7.887,0,0,1,2.97-.783h.16a2.7,2.7,0,0,1,1.029.188,3.284,3.284,0,0,1,1.116.58,3.2,3.2,0,0,1,1.2,2.478v.449c.2-.029.406-.058.623-.087.015,0,.246-.029.246-.029.1,0,.2-.015.3-.015h.16a3.215,3.215,0,0,1,.739.087.5.5,0,0,1,.13.014,3.221,3.221,0,0,1,.536.13,6.514,6.514,0,0,1,3.492,2.637.045.045,0,0,0,.015.029,6.522,6.522,0,0,1,.956,3.565v.3a17.576,17.576,0,0,1-1,5.188.111.111,0,0,1-.029.072,13.719,13.719,0,0,1-1.449,3.057,8,8,0,0,1-1.13,1.377l-.043.043a8.239,8.239,0,0,1-3.608,1.84,12.877,12.877,0,0,1-3.2.42h-.913c-.1,0-.2.014-.3.014h-.087a4.642,4.642,0,0,1-1.087-.13,5.319,5.319,0,0,1-1.058.8,8.972,8.972,0,0,1-4.608,1.29h-.188Z" transform="translate(-893.814 -381.587)" fill="#c8c6af"/>
        <path id="Path_32" data-name="Path 32" d="M814.825,408.286a3.545,3.545,0,0,0-1.942-1.435,2.4,2.4,0,0,1-.449-.087h-.159c-.145.014-.217.029-.217.029a4.617,4.617,0,0,0-1.29.29,6.277,6.277,0,0,0-1.927,1.29,5.76,5.76,0,0,0-1.13,1.55,5.281,5.281,0,0,0-.435,1.145,6.82,6.82,0,0,0-.145,1.362v.116a3.733,3.733,0,0,0,.971,2.347,3.911,3.911,0,0,0,1.406.869,5.928,5.928,0,0,0,1.449.319l-.087.261c-.493,1.145-1.565,1.71-3.217,1.71h-1.246a1.189,1.189,0,0,1-.956-.42,2.12,2.12,0,0,1-.435-1.087q.152-.522.217-.826c.594-2.376,1.058-4.362,1.391-5.941.42-1.768.638-2.7.638-2.753.217-.985.406-2.116.565-3.376v-.174c0-.116-.116-.2-.333-.246h0l-.029-.029c-.116,0-.174,0-.174.029a4.7,4.7,0,0,0-1,.2,5.628,5.628,0,0,0-1.637.869,1.266,1.266,0,0,0-.391.493,4,4,0,0,0-.145.8c-.043.739-.116,1.406-.2,1.956l-.753,5.492a26.83,26.83,0,0,1-1.072,5.014,5.275,5.275,0,0,1-.681,1.174,2.519,2.519,0,0,1-1.884.8,1.937,1.937,0,0,1-1.811-1.232,4.674,4.674,0,0,1-.319-1.637,4.207,4.207,0,0,1,.174-1.261q.456-1.587.478-1.739a.607.607,0,0,0-.29-.507,4.544,4.544,0,0,0-1.927-.652H795.8a.458.458,0,0,0-.391.174,22.813,22.813,0,0,0-.609,4.086c0,.188.029.377.043.565a4.674,4.674,0,0,0,.565,1.7,4.583,4.583,0,0,0,.768.927A5.058,5.058,0,0,0,798,421.472a10.142,10.142,0,0,0,1.811.246h.275a2.277,2.277,0,0,0,.551-.058,4.252,4.252,0,0,0,2.072-.9,6.082,6.082,0,0,0,.971-.956,6.821,6.821,0,0,0,.753-1.333,4.115,4.115,0,0,0,.507.464,3.058,3.058,0,0,0,1.623.638h.087a.045.045,0,0,0,.029-.014h1.188a9.553,9.553,0,0,0,2.449-.319,5.392,5.392,0,0,0,2.333-1.13,5.027,5.027,0,0,0,.71-.855,11.874,11.874,0,0,0,1.145-2.449,14.391,14.391,0,0,0,.855-4.275v-.3a3.583,3.583,0,0,0-.493-1.971Zm-2.434,1.478a18.107,18.107,0,0,1-.8,4.564c-.058.362-.13.536-.232.536a2.025,2.025,0,0,1-.971-.348,2.27,2.27,0,0,1-.869-1.927v-.043a6.583,6.583,0,0,1,.478-2.174c.536-1.232,1.116-1.84,1.739-1.84s.13.014.217.043q.413.217.435,1.087v.087Z" transform="translate(-791.8 -399.288)" fill="#1c4233"/>
        <path id="Path_33" data-name="Path 33" d="M905.081,397.627a1.735,1.735,0,0,0-1.521-.927h-.072a2.115,2.115,0,0,0-1.072.319A2.149,2.149,0,0,0,901.4,398.8v.072a1.883,1.883,0,0,0,.145.71,1.694,1.694,0,0,0,1.565,1.014h.072a2.116,2.116,0,0,0,1.072-.319,2.149,2.149,0,0,0,1.014-1.782v-.072a2.069,2.069,0,0,0-.188-.811Z" transform="translate(-882.954 -393.73)" fill="#1c4233"/>
        <path id="Path_34" data-name="Path 34" d="M1006.609,386.068a4.665,4.665,0,0,1-4.2-2.594,2.131,2.131,0,0,1-.145-.319,4.969,4.969,0,0,1-.362-1.8v-.072a5.121,5.121,0,0,1,2.246-4.188l.261-.174a5.062,5.062,0,0,1,2.565-.725h.072a4.7,4.7,0,0,1,4.072,2.362c.043.087.087.159.13.246a4.956,4.956,0,0,1,.493,2.1v.072a5.121,5.121,0,0,1-2.246,4.188,2.359,2.359,0,0,1-.246.159,5.113,5.113,0,0,1-2.579.725h-.072Z" transform="translate(-968.891 -376.2)" fill="#c8c6af"/>
        <path id="Path_35" data-name="Path 35" d="M952.6,408.372a3.545,3.545,0,0,0-1.942-1.435,2.694,2.694,0,0,1-.449-.087h-.159c-.145.014-.217.029-.217.029a4.618,4.618,0,0,0-1.29.29,6.277,6.277,0,0,0-1.927,1.29,5.759,5.759,0,0,0-1.13,1.55,5.281,5.281,0,0,0-.435,1.145,6.825,6.825,0,0,0-.145,1.362v.116a3.734,3.734,0,0,0,.971,2.347,3.91,3.91,0,0,0,1.406.869,5.929,5.929,0,0,0,1.449.319l-.087.261c-.493,1.145-1.565,1.71-3.217,1.71h-1.246a.014.014,0,0,0-.014.014,1.273,1.273,0,0,1-1.261-1c.319-1.174.522-1.971.623-2.391.493-1.927.884-3.579,1.159-4.985.3-1.188.565-2.333.8-3.449.174-.869.3-1.724.406-2.579v-.188a.311.311,0,0,0-.13-.188c-.159-.029-.232-.058-.232-.072a4.965,4.965,0,0,0-1.84.507c-.782.377-1.232.724-1.348,1.058a1.792,1.792,0,0,0-.13.623c-.1,1.246-.275,2.608-.507,4.115-.348,2.8-.71,5.028-1.087,6.709a2.017,2.017,0,0,1-.869-.362,2.313,2.313,0,0,1-.551-.927,8.834,8.834,0,0,1-.188-1.9v-.275h0v-.058c0-.435.029-.913.058-1.42l.348-3.985a13.053,13.053,0,0,0,.174-1.42,1.184,1.184,0,0,0-.13-.275,3.559,3.559,0,0,0-1.377-.71,6.121,6.121,0,0,0-1.3-.2s-.1.029-.29.072a.334.334,0,0,0-.159.319v.029h0a1.422,1.422,0,0,1-.029.319v.188h0v.2h0v.29a4.988,4.988,0,0,1,.029.58v.029h0v.159l.029.145h0l.029.3h0a.094.094,0,0,0,.029.072h0l.029.2h0c.029.3.072.768.159,1.406q.13,1.956.3,3.347c.087.884.188,1.724.333,2.55a2.475,2.475,0,0,0,.261.782,2.588,2.588,0,0,0,1.116,1.188,4.052,4.052,0,0,0,1.753.478,2.067,2.067,0,0,1-.116.377,6.194,6.194,0,0,1-.478.84,3.264,3.264,0,0,1-2.246,1c-.782,0-.536-.029-.725-.087a3,3,0,0,0-.768-.232h-.029c-.087,0-.159.058-.261.159a2.4,2.4,0,0,0-.348,1.145c0,.348.058.377.188.478a3.433,3.433,0,0,0,1.869.464h.188a5.973,5.973,0,0,0,3.13-.9,3.322,3.322,0,0,0,.768-.667,12.322,12.322,0,0,0,.841-1.377l.377.333a3.016,3.016,0,0,0,1.623.638h.087c.014,0,.029,0,.029-.029h1.2a9.551,9.551,0,0,0,2.449-.319,5.391,5.391,0,0,0,2.333-1.13,5.023,5.023,0,0,0,.71-.855,11.158,11.158,0,0,0,1.145-2.449,14.388,14.388,0,0,0,.855-4.275v-.3a3.583,3.583,0,0,0-.493-1.971Zm-2.434,1.478a18.11,18.11,0,0,1-.8,4.564c-.058.362-.13.536-.232.536a2.025,2.025,0,0,1-.971-.348,2.269,2.269,0,0,1-.869-1.927v-.043a6.584,6.584,0,0,1,.478-2.174c.536-1.232,1.116-1.84,1.739-1.84s.13.014.217.043q.413.217.435,1.087v.087Z" transform="translate(-912.027 -399.373)" fill="#1c4233"/>
        <path id="Path_36" data-name="Path 36" d="M1026.181,397.627a1.736,1.736,0,0,0-1.521-.927h-.073a2.115,2.115,0,0,0-1.072.319,2.149,2.149,0,0,0-1.014,1.782v.072a1.882,1.882,0,0,0,.145.71,1.694,1.694,0,0,0,1.565,1.014h.072a2.115,2.115,0,0,0,1.072-.319,2.149,2.149,0,0,0,1.014-1.782v-.072a1.865,1.865,0,0,0-.2-.811Z" transform="translate(-986.506 -393.73)" fill="#1c4233"/>
      </g>
      <g id="Group_11" data-name="Group 11" transform="translate(0 1.521)">
        <path id="Path_37" data-name="Path 37" d="M20.15,249.705a18.01,18.01,0,0,1-16.5-10.868c-2.7-6.419-.971-13.418,4.709-19.2,3.7-3.753,8-5.738,12.462-5.738s10.607,2.927,13.94,7.854a2.983,2.983,0,0,1,.043,3.289c-3.9,6.042-1,10.781.435,12.549a2.986,2.986,0,0,1,.2,3.478,18.943,18.943,0,0,1-2.956,3.565,17.83,17.83,0,0,1-12.317,5.086h0Z" transform="translate(-2.4 -213.9)" fill="#c8c6af"/>
        <path id="Path_38" data-name="Path 38" d="M56.146,305.329c-1.391-.217-2.768-3.956-1.521-4.463C56.957,299.91,58.247,305.662,56.146,305.329Z" transform="translate(-46.64 -288.173)" fill="#c8c6af"/>
        <path id="Path_39" data-name="Path 39" d="M90.116,283.5c.811-1.029,4.492-1.2,4.535.493C94.695,285.939,88.319,285.823,90.116,283.5Z" transform="translate(-77.133 -272.753)" fill="#c8c6af"/>
        <path id="Path_40" data-name="Path 40" d="M104.143,309.78a5.731,5.731,0,0,1-1.7,2.275c-2.565,1.666-2.362-2.174-.2-3.507A1.186,1.186,0,0,1,104.143,309.78Z" transform="translate(-86.349 -294.623)" fill="#c8c6af"/>
        <path id="Path_41" data-name="Path 41" d="M142.129,266.839c.782-2.014,4.9.681,4.217,2.058C145.418,270.968,141.738,267.839,142.129,266.839Z" transform="translate(-121.857 -258.55)" fill="#c8c6af"/>
        <path id="Path_42" data-name="Path 42" d="M131.669,343.187c.7.043,2.71.811,2.623,1.724-.072,2.159-6.057.551-4.333-1.145A2.8,2.8,0,0,1,131.669,343.187Z" transform="translate(-111.209 -324.451)" fill="#c8c6af"/>
        <path id="Path_43" data-name="Path 43" d="M147.145,302.717c1.637-2.217,3.652,3.289,1.246,4.086C147.116,307.223,146.449,303.659,147.145,302.717Z" transform="translate(-125.931 -289.4)" fill="#c8c6af"/>
        <path id="Path_44" data-name="Path 44" d="M76.644,350.826c-.768,1.985-4.651-1.072-4.231-2.145C73.123,346.826,77.195,349.406,76.644,350.826Z" transform="translate(-62.241 -328.598)" fill="#c8c6af"/>
        <path id="Path_45" data-name="Path 45" d="M28.184,239.4c-14.939,15.186,6.477,33.414,19.953,20.721a15.759,15.759,0,0,0,2.492-2.985c-3.391-4.188-4.42-10.158-.623-16.041-4.521-6.651-13.809-9.839-21.822-1.7ZM34.5,253.784c-.768,1.985-4.651-1.072-4.231-2.145C30.98,249.785,35.052,252.364,34.5,253.784Zm-4.9-5.072c-1.377-.217-2.768-3.956-1.521-4.463C30.415,243.293,31.7,249.046,29.6,248.713Zm6.593.261c-2.55,1.681-2.362-2.174-.2-3.507a1.186,1.186,0,0,1,1.9,1.232A5.6,5.6,0,0,1,36.2,248.974Zm6.97,3.043c-.072,2.159-6.057.551-4.333-1.145a2.8,2.8,0,0,1,1.71-.58c.7.043,2.71.811,2.623,1.724Zm-10.085-9.708c.8-1.029,4.492-1.2,4.535.493C37.66,244.742,31.285,244.627,33.081,242.308Zm9.477,6.651c-1.275.42-1.942-3.144-1.246-4.086C42.949,242.656,44.963,248.162,42.558,248.959Zm2.029-7.057c-.927,2.072-4.608-1.058-4.217-2.058C41.152,237.845,45.282,240.526,44.587,241.9Z" transform="translate(-20.098 -231.556)" fill="#1c4233"/>
      </g>
      <g id="Group_12" data-name="Group 12" transform="translate(26.111)">
        <path id="Path_46" data-name="Path 46" d="M200.35,239.205a18.01,18.01,0,0,1-16.5-10.868c-2.7-6.419-.971-13.418,4.709-19.2,3.695-3.753,8-5.738,12.462-5.738s10.607,2.927,13.94,7.854a2.983,2.983,0,0,1,.043,3.289c-3.9,6.042-1,10.781.435,12.549a2.986,2.986,0,0,1,.2,3.478,18.943,18.943,0,0,1-2.956,3.565,17.838,17.838,0,0,1-12.331,5.086h0Z" transform="translate(-182.6 -203.4)" fill="#c8c6af"/>
        <path id="Path_47" data-name="Path 47" d="M208.384,228.8c-14.939,15.186,6.477,33.414,19.953,20.721a15.761,15.761,0,0,0,2.492-2.985c-3.391-4.188-4.42-10.158-.623-16.041-4.521-6.651-13.809-9.839-21.822-1.7Zm6.318,14.389c-.768,1.985-4.651-1.072-4.231-2.145C211.18,239.185,215.252,241.764,214.7,243.184Zm-4.9-5.072c-1.377-.217-2.768-3.956-1.521-4.463C210.615,232.693,211.9,238.446,209.8,238.113Zm6.593.275c-2.55,1.681-2.362-2.174-.2-3.507a1.186,1.186,0,0,1,1.9,1.232A5.6,5.6,0,0,1,216.4,238.388Zm6.97,3.028c-.072,2.159-6.057.551-4.333-1.145a2.8,2.8,0,0,1,1.71-.58C221.439,239.736,223.454,240.5,223.367,241.417Zm-10.085-9.694c.8-1.029,4.492-1.2,4.535.493C217.86,234.157,211.485,234.041,213.281,231.723Zm9.477,6.651c-1.275.42-1.942-3.144-1.246-4.086C223.149,232.07,225.163,237.577,222.758,238.374Zm2.029-7.057c-.927,2.072-4.608-1.058-4.217-2.058C221.352,227.26,225.482,229.94,224.787,231.317Z" transform="translate(-200.298 -220.971)" fill="#1c4233"/>
        <path id="Path_48" data-name="Path 48" d="M236.346,294.729c-1.391-.217-2.768-3.956-1.521-4.463C237.157,289.31,238.447,295.062,236.346,294.729Z" transform="translate(-226.84 -277.587)" fill="#c8c6af"/>
        <path id="Path_49" data-name="Path 49" d="M270.316,273c.811-1.029,4.492-1.2,4.535.493C274.895,275.439,268.519,275.323,270.316,273Z" transform="translate(-257.333 -262.253)" fill="#c8c6af"/>
        <path id="Path_50" data-name="Path 50" d="M284.343,299.18a5.731,5.731,0,0,1-1.7,2.275c-2.565,1.666-2.362-2.174-.2-3.507A1.186,1.186,0,0,1,284.343,299.18Z" transform="translate(-266.549 -284.038)" fill="#c8c6af"/>
        <path id="Path_51" data-name="Path 51" d="M322.329,256.239c.782-2.014,4.9.681,4.217,2.058C325.618,260.368,321.938,257.239,322.329,256.239Z" transform="translate(-302.057 -247.965)" fill="#c8c6af"/>
        <path id="Path_52" data-name="Path 52" d="M311.869,332.587c.7.043,2.71.811,2.623,1.724-.072,2.159-6.057.551-4.333-1.145A2.8,2.8,0,0,1,311.869,332.587Z" transform="translate(-291.409 -313.866)" fill="#c8c6af"/>
        <path id="Path_53" data-name="Path 53" d="M327.345,292.117c1.637-2.217,3.652,3.289,1.246,4.086C327.316,296.623,326.649,293.059,327.345,292.117Z" transform="translate(-306.131 -278.815)" fill="#c8c6af"/>
        <path id="Path_54" data-name="Path 54" d="M256.844,340.226c-.768,1.985-4.651-1.072-4.231-2.145C253.323,336.226,257.395,338.806,256.844,340.226Z" transform="translate(-242.441 -318.012)" fill="#c8c6af"/>
      </g>
      <path id="Path_55" data-name="Path 55" d="M486.258,462.1h.478q4.065,0,6.173,4.13a8.276,8.276,0,0,1,.536,2.869v.246q0,5-5.086,8.448a9.535,9.535,0,0,1-4.072,1.145h-.478q-4.064,0-6.173-4.13a8.276,8.276,0,0,1-.536-2.869v-.42q0-4,3.84-7.361a8.848,8.848,0,0,1,5.332-2.043Z" transform="translate(-408.315 -424.614)" fill="#1c4233"/>
      <path id="Path_56" data-name="Path 56" d="M641.358,439.214h.3q4.673,0,6.825,4.608a7.7,7.7,0,0,1,.478,2.521v.42a9.014,9.014,0,0,1-4.188,7.549,9.391,9.391,0,0,1-4.97,1.55h-.3q-4.673,0-6.825-4.608a7.7,7.7,0,0,1-.478-2.521v-.362q0-4.3,4.014-7.433a8.995,8.995,0,0,1,5.144-1.739Z" transform="translate(-540.941 -405.032)" fill="#1c4233"/>
    </g>
  </g>
</svg>
